<svg class="logo" viewBox="0 0 240 240" xmlns="http://www.w3.org/2000/svg" display="block"><path fill="#FF4136" d="M12 0h218c6.6 0 12 5.4 12 12v218c0 6.6-5.4 12-12 12H12c-6.6 0-12-5.4-12-12V12C0 5.4 5.4 0 12 0z"/><path fill="#FFF" d="M100.7 121.2c-1.3 0-1.3-.2-.7.7 26.8 32.2 55.3 66.4 82.1 98.5 1.4 1.7 2.6 4.1 5.1 4.1 11.6.1 23.1 0 36.2 0 .2 0 .4-.3.2-.5-2.7-3.5-4.3-5.6-6-7.6-16.7-19.8-33.3-39.7-50-59.5-6.4-7.7-6.4-7.6 2.9-10.7 26.6-8.9 41.6-27.6 44.2-55.1 2.5-27-7.5-49-31-64.1-5.3-3.4-8.6-3-12.6 2.4-3.2 4.4-6.4 8.7-9.9 12.8-3.5 4.2-4.6 6.4.7 8.6 10 4 18 11.9 21.3 22.1 7.8 24.3-8.2 46.9-34.7 48-15.9.1-31.1.3-47.8.3z"/><path fill="#FFF" d="M149.7 15.4c-12.4 0-22.6.2-32.8-.1-4.5-.1-7.3 1.5-10.1 4.9C81.3 51.9 55.7 83.6 30 115.1c-3 3.7-3.7 6-.3 10.1 26 31.7 51.7 63.6 77.5 95.4 1.6 2 2.9 4.4 5.9 4.4 11.5.1 23 0 35.9 0-3-3.9-4.9-6.4-6.8-8.8-24.3-30.1-48.5-60.3-73-90.2-3.6-4.4-3.6-7.1 0-11.4 10.3-12.1 20.2-24.7 30.2-37 16.3-20.2 32.5-40.3 50.3-62.2z"/><path fill="#FFF" d="M20.8 14.6h15c8.2 0 15 7.2 15 16v194"/><path fill="#FFF" d="M50.8 224.6h-15c-8.2 0-15-7.2-15-16v-194"/></svg>