<svg class="logo" viewBox="0 0 240 240" xmlns="http://www.w3.org/2000/svg" display="block"><path fill="#FF4136" d="M12 0h218.04c6.6 0 12 5.4 12 12v218.04c0 6.6-5.4 12-12 12H12c-6.6 0-12-5.4-12-12V12C0 5.4 5.4 0 12 0z"/><path fill="#F1FFEB" d="M100.739 121.237c-1.346-.008-1.346-.154-.659.7 26.793 32.155 55.307 66.384 82.139 98.506 1.425 1.707 2.566 4.118 5.138 4.141 11.552.105 23.105.048 36.155.047a.3.3 0 0 0 .234-.485c-2.7-3.452-4.287-5.589-5.996-7.624-16.656-19.848-33.344-39.669-50.004-59.513-6.438-7.668-6.388-7.599 2.928-10.705 26.567-8.857 41.6-27.643 44.15-55.121 2.51-27.028-7.54-48.975-30.956-64.083-5.332-3.44-8.604-3.001-12.566 2.408-3.19 4.356-6.437 8.664-9.923 12.82-3.498 4.169-4.63 6.437.74 8.613 9.952 4.031 17.965 11.914 21.258 22.134 7.814 24.25-8.151 46.932-34.74 48.044-16.057-.099-31.246.118-47.898.118z"/><path fill="#F1FFEB" d="M149.68 15.378c-12.423 0-22.61.182-32.786-.084-4.456-.117-7.348 1.538-10.087 4.942-25.5 31.7-51.08 63.335-76.81 94.847-2.995 3.667-3.653 6.035-.33 10.087 25.974 31.68 51.68 63.58 77.476 95.406 1.593 1.966 2.947 4.415 5.908 4.43 11.497.056 22.994.023 35.95.023-3.04-3.935-4.886-6.417-6.828-8.823-24.298-30.109-48.516-60.285-73.025-90.222-3.592-4.388-3.617-7.144.042-11.438 10.33-12.123 20.17-24.662 30.197-37.044 16.273-20.094 32.54-40.194 50.293-62.124z"/><path fill="#F1FFEB" d="M20.813 14.646h15c8.25 0 15 7.2 15 16v194"/><path fill="#F1FFEB" d="M50.813 224.646h-15c-8.25 0-15-7.2-15-16v-194"/></svg>