<svg class="logo" viewBox="0 0 484.07999 484.07999" xmlns="http://www.w3.org/2000/svg" display="block"><path fill="#FF4136" d="M12 0h460.08c6.6 0 12 5.4 12 12v460.08c0 6.6-5.4 12-12 12H12c-6.6 0-12-5.4-12-12V12C0 5.4 5.4 0 12 0z"/><path fill="#F1FFEB" d="M201.477 242.474c-2.692-.017-2.692-.309-1.317 1.4 53.586 64.308 110.612 132.768 164.276 197.012 2.852 3.413 5.134 8.235 10.277 8.281 23.103.209 46.21.097 72.31.093.494 0 .772-.58.468-.969-5.4-6.905-8.575-11.178-11.992-15.249-33.313-39.694-66.688-79.336-100.009-119.024-12.876-15.336-12.775-15.198 5.858-21.41 53.133-17.715 83.198-55.287 88.3-110.243 5.02-54.055-15.081-97.95-61.912-128.164-10.666-6.881-17.209-6.004-25.132 4.815-6.381 8.712-12.876 17.328-19.847 25.638-6.995 8.339-9.261 12.877 1.48 17.228 19.905 8.062 35.93 23.827 42.517 44.268 15.627 48.501-16.304 93.863-69.48 96.088-32.114-.198-62.493.236-95.797.236z"/><path fill="#F1FFEB" d="M299.36 30.755c-24.847 0-45.22.364-65.572-.168-8.913-.233-14.697 3.077-20.174 9.885-50.999 63.4-102.16 126.669-153.621 189.693-5.99 7.335-7.305 12.07-.66 20.175 51.95 63.36 103.36 127.16 154.952 190.81 3.187 3.933 5.894 8.83 11.816 8.86 22.994.113 45.989.046 71.9.046-6.08-7.868-9.772-12.833-13.655-17.644-48.597-60.219-97.032-120.57-146.05-180.445-7.184-8.775-7.234-14.287.083-22.875 20.659-24.247 40.342-49.325 60.394-74.088 32.546-40.189 65.08-80.388 100.587-124.249z"/><path fill="#F1FFEB" d="M41.626 29.293h52.5c4.125 0 7.5 7.2 7.5 16v403.999"/><path fill="#F1FFEB" d="M101.626 449.291h-45c-8.25 0-15-7.2-15-16V29.292"/></svg>