<svg xmlns="http://www.w3.org/2000/svg" viewBox="0 0 612.1 612.1"><defs><style>.b{fill:#f1ffeb}</style></defs><path d="M15.2 0h581.7a15.26 15.26 0 0115.2 15.2v581.7a15.26 15.26 0 01-15.2 15.2H15.2A15.26 15.26 0 010 596.9V15.2A15.32 15.32 0 0115.2 0z" fill="#ff4136"/><path class="b" d="M251.7 304.7c-3.4 0-3.4-.4-1.7 1.8 67.7 81.3 139.8 167.9 207.7 249.1 3.6 4.3 6.5 10.4 13 10.5 29.2.3 58.4.1 91.4.1a.75.75 0 00.6-1.2c-6.8-8.7-10.8-14.1-15.2-19.3q-63.15-75.3-126.4-150.5c-16.3-19.4-16.2-19.2 7.4-27.1 67.2-22.4 105.2-69.9 111.6-139.4 6.3-68.3-19.1-123.8-78.3-162-13.5-8.7-21.8-7.6-31.8 6.1-8.1 11-16.3 21.9-25.1 32.4s-11.7 16.3 1.9 21.8c25.2 10.2 45.4 30.1 53.8 56 19.8 61.3-20.6 118.7-87.8 121.5-40.6-.3-79 .2-121.1.2z"/><path class="b" d="M375.5 37.1c-31.4 0-57.2.5-82.9-.2-11.3-.3-18.6 3.9-25.5 12.5Q170.35 169.55 72.8 289.2c-7.6 9.3-9.2 15.3-.8 25.5 65.7 80.1 130.7 160.8 195.9 241.2 4 5 7.5 11.2 14.9 11.2 29.1.1 58.1.1 90.9.1-7.7-9.9-12.4-16.2-17.3-22.3-61.4-76.2-122.6-152.5-184.6-228.1-9.1-11.1-9.1-18.1.1-28.9 26.1-30.7 51-62.4 76.4-93.7 41.1-50.8 82.3-101.7 127.2-157.1z"/><path class="b" d="M49.6 35.2v510.7c1.6 21.3 17.6 20.3 32.4 20.3h43.5c.3-46.6 0-93.2 0-139.8 0-122.6.1-144.9.1-267.5V59.5c0-20.5-8.3-24.4-26.5-24.2-21.1-.1-30.1-.1-49.5-.1z"/></svg>